<svg width="33" height="30" viewBox="0 0 33 30" fill="none" xmlns="http://www.w3.org/2000/svg">
<path d="M6.13554 0C2.86155 0 0.225342 2.3957 0.225342 5.371V24.044C0.225342 27.0193 2.86155 29.415 6.13554 29.415H17.2722V17.9156H13.9261V13.7754H17.2722V10.2383C17.2722 7.45929 19.2492 4.90771 23.8034 4.90771C25.6473 4.90771 27.0109 5.06858 27.0109 5.06858L26.9036 8.93483C26.9036 8.93483 25.513 8.92289 23.9956 8.92289C22.3532 8.92289 22.0899 9.61055 22.0899 10.7521V13.7754H27.0341L26.8187 17.9156H22.0899V29.415H26.6831C29.9571 29.415 32.5933 27.0193 32.5933 24.044V5.37103C32.5933 2.39573 29.9571 2.9415e-05 26.6831 2.9415e-05H6.1355L6.13554 0Z" fill="#333333"/>
</svg>
