<svg width="33" height="30" viewBox="0 0 33 30" fill="none" xmlns="http://www.w3.org/2000/svg">
<path d="M16.3158 9.8026C13.3441 9.8026 10.919 12.0065 10.919 14.707C10.919 17.4076 13.3441 19.6115 16.3158 19.6115C19.2875 19.6115 21.7127 17.4076 21.7127 14.707C21.7127 12.0065 19.2875 9.8026 16.3158 9.8026ZM32.5023 14.707C32.5023 12.6761 32.5226 10.6635 32.3971 8.63628C32.2716 6.28156 31.6805 4.19175 29.7857 2.46987C27.8869 0.744301 25.5913 0.210811 23.0002 0.0967547C20.7653 -0.0173019 18.5507 0.00109437 16.3199 0.00109437C14.085 0.00109437 11.8704 -0.0173019 9.63962 0.0967547C7.04848 0.210811 4.74885 0.747981 2.85408 2.46987C0.955262 4.19543 0.368208 6.28156 0.2427 8.63628C0.117191 10.6672 0.137435 12.6798 0.137435 14.707C0.137435 16.7343 0.117191 18.7505 0.2427 20.7778C0.368208 23.1325 0.959311 25.2223 2.85408 26.9442C4.7529 28.6698 7.04848 29.2033 9.63962 29.3173C11.8745 29.4314 14.0891 29.413 16.3199 29.413C18.5547 29.413 20.7694 29.4314 23.0002 29.3173C25.5913 29.2033 27.8909 28.6661 29.7857 26.9442C31.6845 25.2186 32.2716 23.1325 32.3971 20.7778C32.5266 18.7505 32.5023 16.738 32.5023 14.707ZM16.3158 22.2532C11.7206 22.2532 8.01206 18.883 8.01206 14.707C8.01206 10.5311 11.7206 7.1609 16.3158 7.1609C20.9111 7.1609 24.6196 10.5311 24.6196 14.707C24.6196 18.883 20.9111 22.2532 16.3158 22.2532ZM24.9597 8.6142C23.8868 8.6142 23.0204 7.82685 23.0204 6.85185C23.0204 5.87685 23.8868 5.08949 24.9597 5.08949C26.0326 5.08949 26.899 5.87685 26.899 6.85185C26.8993 7.08336 26.8494 7.31266 26.752 7.52661C26.6547 7.74057 26.5119 7.93496 26.3317 8.09867C26.1516 8.26238 25.9377 8.39218 25.7022 8.48065C25.4668 8.56911 25.2145 8.61449 24.9597 8.6142Z" fill="#333333"/>
</svg>
