<svg width="41" height="39" viewBox="0 0 41 39" fill="none" xmlns="http://www.w3.org/2000/svg">
<path d="M27.3828 24.5234C26.4114 24.5234 25.6211 23.8855 25.6211 23.1013C25.6211 22.3172 26.4114 21.6792 27.3828 21.6792C28.3542 21.6792 29.1445 22.3172 29.1445 23.1013C29.1445 23.5138 29.5031 23.8482 29.9453 23.8482C30.3875 23.8482 30.7461 23.5138 30.7461 23.1013C30.7461 21.7327 29.6527 20.582 28.1836 20.2697V19.8812C28.1836 19.4688 27.825 19.1344 27.3828 19.1344C26.9406 19.1344 26.582 19.4688 26.582 19.8812V20.2697C25.1129 20.582 24.0195 21.7327 24.0195 23.1013C24.0195 24.7091 25.5283 26.0171 27.3828 26.0171C28.3542 26.0171 29.1445 26.6551 29.1445 27.4392C29.1445 28.2234 28.3542 28.8614 27.3828 28.8614C26.4114 28.8614 25.6211 28.2234 25.6211 27.4392C25.6211 27.0268 25.2625 26.6924 24.8203 26.6924C24.3781 26.6924 24.0195 27.0268 24.0195 27.4392C24.0195 28.8078 25.1129 29.9586 26.582 30.2709V30.5935C26.582 31.006 26.9406 31.3404 27.3828 31.3404C27.825 31.3404 28.1836 31.006 28.1836 30.5935V30.2709C29.6527 29.9586 30.7461 28.8078 30.7461 27.4392C30.7461 25.8314 29.2373 24.5234 27.3828 24.5234Z" fill="#333333"/>
<path d="M36.1536 20.081C35.1075 18.5607 33.6337 17.3443 31.8916 16.5632C31.4929 16.3844 31.0145 16.541 30.8229 16.9127C30.6313 17.2845 30.799 17.7307 31.1977 17.9094C34.2335 19.2705 36.195 22.1786 36.195 25.3182C36.195 26.6617 35.84 27.994 35.1684 29.1713C34.9606 29.5354 35.1087 29.9877 35.4992 30.1814C35.619 30.2409 35.7477 30.2691 35.8746 30.2691C36.1611 30.2691 36.4382 30.1253 36.5822 29.8729C37.3767 28.4805 37.7966 26.9054 37.7966 25.3182C37.7966 23.4541 37.2284 21.6431 36.1536 20.081Z" fill="#333333"/>
<path d="M28.6418 15.6092L28.5879 15.6091C28.1457 15.6091 27.7871 15.9435 27.7871 16.356C27.7871 16.7685 28.1457 17.1028 28.5879 17.1028L28.6343 17.1029C28.6355 17.1029 28.6367 17.1029 28.6381 17.1029C29.0786 17.1029 29.4367 16.7709 29.4388 16.3596C29.4408 15.9471 29.084 15.6111 28.6418 15.6092Z" fill="#333333"/>
<path d="M23.5754 32.727C20.5396 31.3659 18.5781 28.4578 18.5781 25.3183C18.5781 23.9748 18.9332 22.6425 19.6048 21.4652C19.8125 21.1011 19.6645 20.6488 19.274 20.4551C18.8837 20.2614 18.3986 20.3995 18.1909 20.7636C17.3965 22.1561 16.9766 23.7311 16.9766 25.3183C16.9766 27.1824 17.5447 28.9933 18.6196 30.5555C19.6657 32.0757 21.1394 33.2922 22.8815 34.0733C22.9934 34.1235 23.1116 34.1472 23.2279 34.1472C23.5261 34.1472 23.8124 33.9911 23.9502 33.7238C24.1417 33.352 23.974 32.9057 23.5754 32.727Z" fill="#333333"/>
<path d="M26.1857 33.5334L26.1393 33.5332C25.6951 33.5325 25.337 33.864 25.335 34.2766C25.3329 34.6891 25.6899 35.025 26.1321 35.0269L26.1857 35.0271C26.6279 35.0271 26.9865 34.6927 26.9865 34.2802C26.9865 33.8678 26.6279 33.5334 26.1857 33.5334Z" fill="#333333"/>
<path d="M31.0229 13.0824C30.9255 12.8658 30.8061 12.6617 30.6671 12.4724H32.7519C34.783 12.4724 36.4355 10.9312 36.4355 9.0369C36.4355 7.1426 34.783 5.60141 32.7519 5.60141H26.3392C26.7469 5.04859 26.9863 4.37979 26.9863 3.65961C26.9863 1.76531 25.3338 0.224121 23.3027 0.224121H3.68359C1.65249 0.224121 0 1.76531 0 3.65961C0 5.55391 1.65249 7.0951 3.68359 7.0951H10.0962C9.68855 7.64792 9.4492 8.31672 9.4492 9.0369C9.4492 9.75708 9.68847 10.4259 10.0962 10.9787H8.0078C5.9767 10.9787 4.32421 12.5199 4.32421 14.4142C4.32421 15.5021 4.86986 16.4729 5.71877 17.1028C4.86986 17.7327 4.32421 18.7035 4.32421 19.7915C4.32421 20.8794 4.86986 21.8502 5.71877 22.4801C4.86986 23.11 4.32421 24.0808 4.32421 25.1688C4.32421 26.2567 4.86986 27.2275 5.71877 27.8574C4.86986 28.4873 4.32421 29.4581 4.32421 30.5461C4.32421 32.4404 5.9767 33.9815 8.0078 33.9815H17.445C19.9311 36.4616 23.4678 38.0146 27.3867 38.0146C34.8931 38.0146 41 32.319 41 25.3182C41 19.4915 36.7695 14.5698 31.0229 13.0824ZM32.7519 7.0951C33.9 7.0951 34.8339 7.96622 34.8339 9.0369C34.8339 10.1076 33.9 10.9787 32.7519 10.9787H27.6269H13.1328C11.9847 10.9787 11.0508 10.1076 11.0508 9.0369C11.0508 7.96622 11.9847 7.0951 13.1328 7.0951H32.7519ZM3.68359 5.60141C2.53551 5.60141 1.60156 4.73029 1.60156 3.65961C1.60156 2.58893 2.53551 1.71781 3.68359 1.71781H23.3027C24.4508 1.71781 25.3847 2.58893 25.3847 3.65961C25.3847 4.73029 24.4508 5.60141 23.3027 5.60141H3.68359ZM8.0078 12.4724H27.6269C27.9495 12.4724 28.2583 12.5423 28.5354 12.6675C28.1566 12.6378 27.7737 12.6218 27.3867 12.6218C23.6275 12.6218 20.2194 14.0505 17.7534 16.356H8.0078C6.8598 16.356 5.92577 15.4849 5.92577 14.4142C5.92577 13.3435 6.8598 12.4724 8.0078 12.4724ZM8.0078 17.8497H16.3852C15.4761 19.0112 14.7733 20.3214 14.3269 21.7333H8.0078C6.85972 21.7333 5.92577 20.8622 5.92577 19.7915C5.92577 18.7208 6.85972 17.8497 8.0078 17.8497ZM8.0078 23.227H13.9592C13.8377 23.9076 13.7735 24.6059 13.7735 25.3182C13.7735 25.9266 13.8207 26.5248 13.9098 27.1106H8.0078C6.85972 27.1106 5.92577 26.2395 5.92577 25.1688C5.92577 24.098 6.85972 23.227 8.0078 23.227ZM8.0078 32.4879C6.85972 32.4879 5.92577 31.6168 5.92577 30.5461C5.92577 29.4753 6.85972 28.6043 8.0078 28.6043H14.2367C14.6408 30.0093 15.2972 31.3187 16.1581 32.4879H8.0078ZM27.3867 36.5209C20.7635 36.5209 15.3751 31.4954 15.3751 25.3182C15.3751 19.1411 20.7635 14.1155 27.3867 14.1155C34.01 14.1155 39.3984 19.1411 39.3984 25.3182C39.3984 31.4954 34.01 36.5209 27.3867 36.5209Z" fill="#333333"/>
</svg>
