<svg width="40" height="36" viewBox="0 0 40 36" fill="none" xmlns="http://www.w3.org/2000/svg">
<path d="M34.033 10.4158C34.0229 10.3691 34.008 10.3232 33.9885 10.2788C33.9689 10.2351 33.9447 10.1928 33.9166 10.1535C33.8877 10.1134 33.8557 10.0762 33.8189 10.0427C33.7829 10.0092 33.7432 9.97859 33.7001 9.95236C33.6579 9.92613 33.6127 9.90354 33.5657 9.88533C33.5189 9.86711 33.4697 9.85254 33.4196 9.8438C33.3189 9.82485 33.215 9.82485 33.1142 9.8438C33.0642 9.85254 33.015 9.86711 32.9682 9.88533C32.9213 9.90354 32.876 9.9254 32.833 9.95236C32.7907 9.97859 32.7502 10.0092 32.7143 10.0427C32.6783 10.0762 32.6454 10.1134 32.6174 10.1535C32.5892 10.1928 32.565 10.2351 32.5455 10.2788C32.526 10.3232 32.5111 10.3691 32.501 10.4158C32.4908 10.4624 32.4854 10.5105 32.4854 10.5578C32.4854 10.6052 32.4908 10.6533 32.501 10.6999C32.5111 10.7465 32.526 10.7924 32.5455 10.8362C32.565 10.8806 32.5893 10.9229 32.6174 10.9622C32.6454 11.0023 32.6783 11.0394 32.7143 11.073C32.7502 11.1065 32.7908 11.1371 32.833 11.1633C32.8759 11.1895 32.9212 11.2121 32.9682 11.2303C33.015 11.2486 33.0642 11.2624 33.1142 11.2719C33.165 11.2813 33.2158 11.2864 33.2665 11.2864C33.4728 11.2864 33.6736 11.2085 33.8189 11.073C33.8557 11.0394 33.8877 11.0023 33.9166 10.9622C33.9447 10.9229 33.9689 10.8806 33.9885 10.8362C34.008 10.7924 34.0229 10.7465 34.033 10.6999C34.0432 10.6533 34.0479 10.6052 34.0479 10.5578C34.0479 10.5105 34.0432 10.4624 34.033 10.4158Z" fill="#333333"/>
<path d="M39.2188 0.101074H0.78125C0.349766 0.101074 0 0.427283 0 0.829706V7.12888C0 7.5313 0.349766 7.85751 0.78125 7.85751H1.8757V34.6108C1.8757 35.0133 2.22547 35.3395 2.65695 35.3395H37.343C37.7745 35.3395 38.1243 35.0133 38.1243 34.6108V7.85751H39.2188C39.6502 7.85751 40 7.5313 40 7.12888V0.829706C40 0.427283 39.6502 0.101074 39.2188 0.101074ZM14.8502 1.55834H25.1498V6.40025H14.8502V1.55834ZM14.8502 7.85751H25.1498V17.376L23.4091 16.2499C23.1413 16.0767 22.7864 16.0767 22.5187 16.2498L20 17.8784L17.4812 16.2497C17.3473 16.1632 17.1917 16.1199 17.0361 16.1199C16.8804 16.1199 16.7247 16.1633 16.5908 16.2498L14.8502 17.3759V7.85751ZM1.5625 6.40025V1.55834H13.2877V6.40025H1.5625ZM13.2877 7.85751V9.82919H3.4382V7.85751H13.2877ZM21.2149 21.0264V33.8822H3.4382V11.2864H13.2877V18.7681C13.2877 19.0392 13.4491 19.2879 13.7067 19.4137C13.9643 19.5395 14.2755 19.5214 14.5143 19.3668L17.0362 17.7353L19.5548 19.3639C19.8226 19.537 20.1774 19.537 20.4451 19.3639L22.9638 17.7353L25.4857 19.3668C25.6189 19.453 25.7746 19.4968 25.931 19.4968C26.0549 19.4968 26.1794 19.4692 26.2932 19.4137C26.5508 19.2879 26.7122 19.0392 26.7122 18.7681V11.2864H30.1389C30.5703 11.2864 30.9202 10.9602 30.9202 10.5577C30.9202 10.1553 30.5703 9.82912 30.1389 9.82912H26.7122V7.85744H36.5617V20.2977H21.9962C21.5648 20.2977 21.2149 20.6239 21.2149 21.0264ZM36.5618 33.8822H22.7774V21.755H36.5618V33.8822ZM38.4375 6.40025H26.7123V1.55834H38.4375V6.40025Z" fill="#333333"/>
<path d="M35.2022 26.2567C35.0264 24.6351 33.6157 23.4153 31.9102 23.4153C31.0804 23.4153 30.328 23.7266 29.7588 24.281C29.1429 23.7453 28.3091 23.4153 27.4637 23.4153C25.7731 23.4153 24.4729 24.5825 24.2935 26.257C24.27 26.4052 24.236 26.7979 24.3899 27.3763C24.6228 28.25 25.1567 29.0416 25.9397 29.6702L29.1957 32.2325C29.3537 32.358 29.5507 32.4207 29.7477 32.4207C29.9445 32.4207 30.1413 32.3582 30.2993 32.233L33.5614 29.6658C34.3388 29.0423 34.8727 28.2506 35.1056 27.3763C35.2598 26.7977 35.2256 26.4048 35.2022 26.2567ZM33.5891 27.0249C33.4349 27.6044 33.0729 28.1355 32.5481 28.5565L29.7477 30.7603L26.9531 28.5611C26.4225 28.1351 26.0606 27.604 25.9063 27.025C25.8248 26.7185 25.8334 26.5302 25.8375 26.4832C25.8453 26.4546 25.8428 26.4546 25.8465 26.4172C25.9237 25.6482 26.4536 24.8724 27.4636 24.8724C28.1313 24.8724 28.8092 25.2777 29.0753 25.8359C29.2008 26.099 29.4806 26.2685 29.7892 26.2685C29.7892 26.2685 29.7893 26.2685 29.7894 26.2685C30.0981 26.2685 30.3779 26.0989 30.5032 25.8357C30.6746 25.476 31.0852 24.8725 31.9102 24.8725C32.8279 24.8725 33.5592 25.5221 33.6491 26.4172C33.6528 26.4546 33.6502 26.4546 33.6581 26.4832C33.6621 26.5302 33.6708 26.7185 33.5891 27.0249Z" fill="#333333"/>
</svg>
