<svg width="52" height="37" viewBox="0 0 52 37" fill="none" xmlns="http://www.w3.org/2000/svg">
<path d="M44.202 30.7167C44.202 33.3843 42.4686 35.5668 40.3018 35.5668C38.1351 35.5668 36.4016 33.3843 36.4016 30.7167C36.4016 28.0492 38.1351 25.8667 40.3018 25.8667C42.4686 25.8667 44.202 28.0492 44.202 30.7167Z" fill="#FECC00"/>
<path d="M13.0878 30.7167C13.0878 33.3843 11.3543 35.5668 9.18757 35.5668C7.02082 35.5668 5.28735 33.3843 5.28735 30.7167C5.28735 28.0492 7.02082 25.8667 9.18757 25.8667C11.3543 25.8667 13.0878 28.0492 13.0878 30.7167Z" fill="#FECC00"/>
<path d="M50.2692 15.3583H45.0689L37.8751 7.92154C37.5285 7.51734 36.9217 7.27484 36.4017 7.27484H26.8678V3.15232C26.8678 1.85901 25.7411 0.808105 24.3543 0.808105H5.98006C4.59335 0.808105 3.46655 1.85891 3.46655 3.15232V21.0166H26.8679V30.7167H36.4018C36.4018 28.0492 38.7419 25.8666 41.6021 25.8666C44.4622 25.8666 46.8023 28.0492 46.8023 30.7167H50.0092C50.6158 30.7167 51.1359 30.2317 51.1359 29.6659V16.8941C51.136 16.4091 50.6159 15.6816 50.2692 15.3583Z" fill="#FED100"/>
<path d="M27.7349 21.8252H0V3.15253C0 1.37421 1.47345 0 3.38019 0H24.4414C26.2615 0 27.7349 1.37421 27.7349 3.15253V21.8252ZM1.73346 20.2085H26.0014V3.15253C26.0014 2.34422 25.308 1.61671 24.3547 1.61671H3.38019C2.42677 1.61671 1.73346 2.26342 1.73346 3.15253V20.2085Z" fill="#333333"/>
<path d="M41.6019 36.3752C38.2217 36.3752 35.5349 33.8694 35.5349 30.7169C35.5349 27.5643 38.2217 25.0585 41.6019 25.0585C44.9821 25.0585 47.6689 27.5643 47.6689 30.7169C47.6689 33.8694 44.9821 36.3752 41.6019 36.3752ZM41.6019 26.6751C39.1751 26.6751 37.2683 28.4534 37.2683 30.7169C37.2683 32.9803 39.175 34.7586 41.6019 34.7586C44.0287 34.7586 45.9355 32.9803 45.9355 30.7169C45.9355 28.4534 44.0287 26.6751 41.6019 26.6751Z" fill="#333333"/>
<path d="M10.401 36.3752C7.02077 36.3752 4.33398 33.8694 4.33398 30.7169C4.33398 27.5643 7.02077 25.0585 10.401 25.0585C13.7811 25.0585 16.4679 27.5643 16.4679 30.7169C16.4679 33.8694 13.7811 36.3752 10.401 36.3752ZM10.401 26.6751C7.97419 26.6751 6.06735 28.4534 6.06735 30.7169C6.06735 32.9803 7.97409 34.7586 10.401 34.7586C12.8278 34.7586 14.7346 32.9803 14.7346 30.7169C14.7346 28.4534 12.8277 26.6751 10.401 26.6751Z" fill="#333333"/>
<path d="M50.7032 21.8251H35.969C35.4489 21.8251 35.1023 21.5018 35.1023 21.0168C35.1023 20.5318 35.4489 20.2085 35.969 20.2085H50.7032C51.2232 20.2085 51.5698 20.5318 51.5698 21.0168C51.5698 21.5017 51.2232 21.8251 50.7032 21.8251Z" fill="#333333"/>
<path d="M13.8674 14.55H0.866681C0.346652 14.55 0 14.2268 0 13.7418C0 13.2568 0.346652 12.9335 0.866681 12.9335H13.8674C14.3874 12.9335 14.7341 13.2568 14.7341 13.7418C14.7342 14.2267 14.3874 14.55 13.8674 14.55Z" fill="#333333"/>
<path d="M10.4006 10.5082H0.866681C0.346652 10.5082 0 10.1849 0 9.69992C0 9.21491 0.346652 8.8916 0.866681 8.8916H10.4006C10.9206 8.8916 11.2673 9.21491 11.2673 9.69992C11.2673 10.1849 10.9206 10.5082 10.4006 10.5082Z" fill="#333333"/>
<path d="M49.2292 31.5253H45.9356V30.717C45.9356 28.4537 44.0289 26.6753 41.602 26.6753C39.1752 26.6753 37.2684 28.4536 37.2684 30.717V31.5253H26.0012V6.46667H36.6618C37.8753 6.46667 38.9153 6.95168 39.6954 7.84089L45.4157 14.5502L45.5023 14.631H49.1425C50.7026 14.631 51.916 15.8435 51.916 17.2177V28.9386C52.0027 30.3128 50.7026 31.5253 49.2292 31.5253ZM47.5824 29.9086H49.1425C49.7492 29.9086 50.1826 29.4236 50.1826 28.8578V17.2177C50.1826 16.6519 49.6625 16.2477 49.1425 16.2477H45.5023C44.8956 16.2477 44.3756 16.0052 44.0289 15.601L38.3085 8.8917C37.9619 8.32589 37.3551 8.08339 36.6618 8.08339H27.7347V29.9086H35.6218C36.0552 27.1603 38.5686 25.0586 41.6021 25.0586C44.6356 25.0586 47.149 27.1603 47.5824 29.9086Z" fill="#333333"/>
<path d="M27.7349 31.5253H14.7342V30.717C14.7342 28.4536 12.8274 26.6752 10.4006 26.6752C7.97371 26.6752 6.06697 28.4535 6.06697 30.717V31.5253H2.60014C1.1267 31.5253 0 30.4745 0 29.1003V20.2085H27.7349V31.5253ZM16.3809 29.9086H26.0014V21.8252H1.73346V29.1003C1.73346 29.5853 2.08012 29.9086 2.60014 29.9086H4.42025C4.85364 27.1602 7.36704 25.0585 10.4006 25.0585C13.4341 25.0585 15.9475 27.1602 16.3809 29.9086Z" fill="#333333"/>
<path d="M12.1334 30.7168C12.1334 31.606 11.3534 32.3335 10.4 32.3335C9.44655 32.3335 8.6665 31.606 8.6665 30.7168C8.6665 29.8276 9.44655 29.1001 10.4 29.1001C11.3534 29.1001 12.1334 29.8277 12.1334 30.7168Z" fill="#333333"/>
<path d="M43.3358 30.7168C43.3358 31.606 42.5558 32.3335 41.6024 32.3335C40.6489 32.3335 39.8689 31.606 39.8689 30.7168C39.8689 29.8276 40.6489 29.1001 41.6024 29.1001C42.5558 29.1002 43.3358 29.8277 43.3358 30.7168Z" fill="#333333"/>
<path d="M44.8093 13.7418H33.542C32.242 13.7418 31.2019 12.7717 31.2019 11.5592V6.46667H36.6622C37.8756 6.46667 38.9157 6.95168 39.6957 7.84089L44.8093 13.7418ZM32.9354 8.08339V11.5592C32.9354 11.8825 33.1954 12.125 33.542 12.125H41.2558L38.3957 8.81081C37.9623 8.3258 37.3556 8.0833 36.6622 8.0833L32.9354 8.08339Z" fill="#333333"/>
</svg>
