<svg width="33" height="30" viewBox="0 0 33 30" fill="none" xmlns="http://www.w3.org/2000/svg">
<path d="M31.1063 2.52508C29.9379 0.731581 27.7807 0 23.6611 0H8.70656C4.49257 0 2.29885 0.778771 1.13486 2.68821C0 4.54993 0 7.29302 0 11.0895V18.3256C0 25.6807 1.34651 29.415 8.70656 29.415H23.6611C27.2337 29.415 29.2134 28.7696 30.4942 27.1867C31.8076 25.5637 32.3679 22.9136 32.3679 18.3256V11.0895C32.3679 7.08579 32.2802 4.32653 31.1063 2.52508ZM20.7804 15.7066L13.9895 20.2896C13.8377 20.392 13.6717 20.4429 13.5059 20.4429C13.3181 20.4429 13.1308 20.3776 12.9649 20.2479C12.6525 20.0035 12.4618 19.5662 12.4618 19.0946V9.95804C12.4618 9.48721 12.652 9.05038 12.9638 8.80579C13.2757 8.56123 13.6635 8.54451 13.9871 8.76157L20.778 13.315C21.1235 13.5466 21.3403 14.0072 21.3409 14.5097C21.3414 15.0126 21.1253 15.4739 20.7804 15.7066Z" fill="#333333"/>
</svg>
