<svg width="34" height="30" viewBox="0 0 34 30" fill="none" xmlns="http://www.w3.org/2000/svg">
<path d="M4.50757 0C3.55373 0 2.63897 0.344342 1.9645 0.957274C1.29004 1.57021 0.911133 2.40152 0.911133 3.26834V26.1467C0.911133 27.0135 1.29004 27.8448 1.9645 28.4578C2.63897 29.0707 3.55373 29.415 4.50757 29.415H29.6826C30.6365 29.415 31.5512 29.0707 32.2257 28.4578C32.9001 27.8448 33.2791 27.0135 33.2791 26.1467V3.26834C33.2791 2.40152 32.9001 1.57021 32.2257 0.957274C31.5512 0.344342 30.6365 0 29.6826 0H4.50757ZM5.40668 8.98793H8.104C8.75136 8.98793 9.00311 9.2494 9.25486 9.9194C10.5496 13.3512 12.7254 16.3417 13.6245 16.3417C13.9662 16.3417 14.128 16.211 14.128 15.4429V11.8967C14.0201 10.2626 13.0671 10.1155 13.0671 9.54355C13.0671 9.26574 13.3188 8.98793 13.7504 8.98793H17.9043C18.4797 8.98793 18.6595 9.26574 18.6595 9.87038V14.6422C18.6595 15.1487 18.8933 15.3285 19.0731 15.3285C19.4148 15.3285 19.7025 15.1487 20.3139 14.5931C22.22 12.6485 23.5687 9.67428 23.5687 9.67428C23.7485 9.31476 24.0542 8.98793 24.7195 8.98793H27.3629C28.1721 8.98793 28.3519 9.36379 28.1721 9.87038C27.8305 11.2758 24.6116 15.4102 24.6116 15.4102C24.288 15.8188 24.216 16.0149 24.6116 16.4888C24.8814 16.8319 25.8165 17.551 26.4278 18.221C27.5787 19.3812 28.4239 20.3617 28.6756 21.0318C28.8914 21.7181 28.5138 22.0613 27.7585 22.0613H25.0972C24.0902 22.0613 23.8024 21.3259 22.0042 19.6917C20.4218 18.319 19.7924 18.1393 19.3608 18.1393C18.8214 18.1393 18.6595 18.27 18.6595 18.9727V21.1298C18.6595 21.7181 18.4617 22.0613 16.7714 22.0613C13.9662 22.0613 10.8733 20.5088 8.69742 17.649C5.40668 13.4656 4.50757 10.3116 4.50757 9.67428C4.50757 9.31476 4.65143 8.98793 5.40668 8.98793Z" fill="#333333"/>
</svg>
